<svg xmlns="http://www.w3.org/2000/svg" version="1.1" xmlns:xlink="http://www.w3.org/1999/xlink" xmlns:svgjs="http://svgjs.dev/svgjs" width="1000" height="1000" viewBox="0 0 1000 1000"><rect width="1000" height="1000" fill="#d8b0ea"></rect><g transform="matrix(0.7,0,0,0.7,150,219.1358699200045)"><svg viewBox="0 0 448 360" data-background-color="#d8b0ea" preserveAspectRatio="xMidYMid meet" height="803" width="1000" xmlns="http://www.w3.org/2000/svg" xmlns:xlink="http://www.w3.org/1999/xlink"><g id="tight-bounds" transform="matrix(1,0,0,1,0,-0.11904140046539169)"><svg viewBox="0 0 448 360" height="360" width="448"><g><svg></svg></g><g><svg viewBox="0 0 448 360" height="360" width="448"><g><path transform="translate(36.9151,-7.08178) scale(0.00624,0.00624)" d="M25167 8301c221 0 400 179 400 400 0 221-179 400-400 400h-3824l-2753 2753c-156 156-409 156-566 0-156-156-156-409 0-566l2188-2188h-6475c-1847 0-3071 431-3819 1301-760 885-1068 2254-1068 4110 0 11 0 22-1 33l34 5884 2356-2356c156-156 409-156 566 0 156 156 156 409 0 566l-2915 2915c33 5746 31 11443-2 17189 4087 4041 8117 8068 12157 12154h4070c221 0 400 179 400 400 0 221-179 400-400 400h-3279l4160 4208 1-1c1313 1313 2498 2062 3660 2151 1146 87 2316-474 3622-1779l4579-4579h-3323c-221 0-400-179-400-400 0-221 179-400 400-400h4123l2666-2666c156-156 409-156 566 0 156 156 156 409 0 566l-2101 2101h6475c1847 0 3071-431 3819-1301 760-885 1068-2254 1068-4110h2l-34-5917-2568 2568c-156 156-409 156-566 0-156-156-156-409 0-566l3127-3127c-33-5746-31-11443 2-17189-4087-4041-8117-8068-12157-12154h-4193c-221 0-400-179-400-400 0-221 179-400 400-400h3402l-4141-4189c-7-6-13-12-20-18-1313-1313-2498-2062-3660-2151-1146-87-2316 474-3622 1779l-4579 4579h3024zM13737 8301h7275l5144-5144c1483-1483 2856-2116 4247-2010 1374 104 2719 934 4167 2382 8 8 15 15 22 23l4695 4749h6977c2096 0 3515 524 4425 1583 898 1045 1261 2582 1261 4629 0 13-1 25-2 37l-36 6373 4559 4508 1-1c1448 1448 2278 2792 2382 4167 106 1391-528 2764-2010 4247l-4934 4934 38 6710h2c0 2047-364 3584-1261 4629-910 1059-2329 1583-4425 1583h-7275l-5144 5144c-1483 1483-2856 2116-4247 2010-1374-104-2719-934-4167-2382l1-1-4718-4772h-6977c-2096 0-3515-524-4425-1583-898-1045-1261-2582-1261-4629h2l37-6410-4537-4485c-8-7-16-14-23-22-1448-1448-2278-2792-2382-4167-106-1391 528-2764 2010-4247l4934-4934-38-6672c-1-12-2-25-2-37 0-2047 364-3584 1261-4629 910-1059 2329-1583 4425-1583zM8141 30000l-44-7653-4374 4374c-1305 1305-1866 2476-1779 3622 88 1162 838 2348 2151 3660 6 6 13 13 18 20l3983 3937 45-7961zM8882 39860l-32 5627h2c0 1857 308 3226 1068 4110 748 871 1972 1301 3819 1301h6186l-5380-5442-5662-5597zM46264 9101h-6186l5380 5442 5662 5597 32-5594c-1-11-1-22-1-33 0-1857-308-3226-1068-4110-748-871-1972-1301-3819-1301zM51906 22039l-45 7961 44 7653 4374-4374c1305-1305 1866-2476 1779-3622-88-1163-838-2348-2151-3660l1-1-4002-3956z" fill="#7829b9" fill-rule="nonzero" stroke="none" stroke-width="1" stroke-linecap="butt" stroke-linejoin="miter" stroke-miterlimit="10" stroke-dasharray="" stroke-dashoffset="0" font-family="none" font-weight="none" font-size="none" text-anchor="none" style="mix-blend-mode: normal" data-fill-palette-color="tertiary"></path></g><g transform="matrix(1,0,0,1,112,123.53625816627871)"><svg viewBox="0 0 224 112.92748366744259" height="112.92748366744259" width="224"><g><svg viewBox="0 0 224.00000000000003 112.9274836674426" height="112.92748366744259" width="224"><g transform="matrix(1,0,0,1,0,83.62669051560995)"><svg viewBox="0 0 224.00000000000003 29.300793151832657" height="29.300793151832657" width="224.00000000000003"><g id="textblocktransform"><svg viewBox="0 0 224.00000000000003 29.300793151832657" height="29.300793151832657" width="224.00000000000003" id="textblock"><g><svg viewBox="0 0 224.00000000000003 29.300793151832657" height="29.300793151832657" width="224.00000000000003"><g transform="matrix(1,0,0,1,0,0)"><svg width="224.00000000000003" viewBox="4.88 -37.84 368.7155939170131 47.85" height="29.300793151832657" data-palette-color="#7829b9"><g transform="matrix(1,0,0,1,0,0)"><g><svg width="14.077062611342043" viewBox="1.99 -36.86 62.38999999999999 37.37" height="8.4326171875" data-palette-color="#7829b9" id="scriptelement" x="359.51853130567105" y="-8.4326171875"><path d="M30.26-25.91L22.89-25.91Q22.67-28.05 21.06-29.24 19.44-30.43 16.67-30.43L16.67-30.43Q14.79-30.43 13.49-29.91 12.2-29.39 11.51-28.46 10.83-27.54 10.83-26.37L10.83-26.37Q10.8-25.39 11.25-24.66 11.7-23.93 12.5-23.41 13.3-22.89 14.35-22.51 15.39-22.12 16.58-21.86L16.58-21.86 19.85-21.08Q22.23-20.54 24.22-19.66 26.21-18.77 27.66-17.47 29.12-16.18 29.93-14.42 30.74-12.66 30.75-10.39L30.75-10.39Q30.74-7.05 29.06-4.61 27.38-2.17 24.23-0.83 21.08 0.51 16.64 0.51L16.64 0.51Q12.23 0.51 8.98-0.83 5.72-2.18 3.9-4.84 2.08-7.49 1.99-11.42L1.99-11.42 9.43-11.42Q9.55-9.59 10.48-8.37 11.42-7.16 12.99-6.54 14.56-5.93 16.55-5.93L16.55-5.93Q18.5-5.93 19.95-6.5 21.4-7.07 22.19-8.08 22.99-9.09 22.99-10.4L22.99-10.4Q22.99-11.63 22.27-12.46 21.56-13.3 20.18-13.88 18.8-14.47 16.81-14.95L16.81-14.95 12.86-15.94Q8.26-17.06 5.59-19.44 2.93-21.82 2.95-25.85L2.95-25.85Q2.93-29.15 4.71-31.62 6.5-34.09 9.62-35.48 12.75-36.86 16.73-36.86L16.73-36.86Q20.77-36.86 23.8-35.48 26.83-34.09 28.52-31.62 30.2-29.15 30.26-25.91L30.26-25.91ZM45.65-30.02L34.51-30.02 34.51-36.36 64.38-36.36 64.38-30.02 53.25-30.02 53.25 0 45.65 0 45.65-30.02Z" opacity="1" transform="matrix(1,0,0,1,0,0)" fill="#7829b9" class="undefined-123" data-fill-palette-color="primary" id="lv-123"></path></svg></g></g><g class="wordmark-text-0" data-fill-palette-color="primary" id="text-0"><path d="M24.51 0L4.88 0 4.88-35.64 9.52-37.84 9.77-37.84 9.77-4.44 26.49-4.44 26.49-4.2 24.51 0ZM31.74 0.98L31.49 0.98 31.49-25.15Q31.49-30.42 34.79-33.81L34.79-33.81Q38.25-37.35 43.82-37.35L43.82-37.35Q49.29-37.35 52.85-33.81L52.85-33.81Q56.15-30.54 56.15-25.15L56.15-25.15 56.15-1.22 51.51 0.98 51.27 0.98 51.27-16.21 36.37-16.21 36.37-1.22 31.74 0.98ZM36.37-25.15L36.37-20.65 51.27-20.65 51.27-25.15Q51.27-28.42 49.51-30.44L49.51-30.44Q47.34-32.96 43.82-32.96 40.31-32.96 38.13-30.44L38.13-30.44Q36.37-28.42 36.37-25.15L36.37-25.15ZM86.32 0L64.69 0 64.69-0.24 80.49-32.42 64.94-32.42 64.94-32.67 66.91-36.87 88.06-36.87 88.06-36.62 72.19-4.44 88.3-4.44 88.3-4.2 86.32 0ZM97.09 0.98L96.84 0.98 96.84-35.64 101.48-37.84 101.73-37.84 101.73-1.22 97.09 0.98ZM111.73 0.98L111.49 0.98 111.49-35.64 116.13-37.84 116.37-37.84 116.37-1.22 111.73 0.98ZM145.25 10.01L124.91 10.01 124.91 9.77 126.89 5.57 147.23 5.57 147.23 5.81 145.25 10.01ZM156.02 0.98L155.77 0.98 155.77-25.15Q155.77-30.42 159.07-33.81L159.07-33.81Q162.53-37.35 168.1-37.35L168.1-37.35Q173.13-37.35 176.67-33.81L176.67-33.81Q177.55-32.93 177.99-32.1L177.99-32.1Q178.55-32.96 179.36-33.74L179.36-33.74Q183.04-37.35 187.88-37.35L187.88-37.35Q193.34-37.35 196.91-33.81L196.91-33.81Q200.2-30.54 200.2-25.15L200.2-25.15 200.2-1.22 195.57 0.98 195.32 0.98 195.32-25.15Q195.32-28.42 193.56-30.44L193.56-30.44Q191.39-32.96 187.88-32.96 184.36-32.96 182.19-30.44L182.19-30.44Q180.43-28.42 180.43-25.15L180.43-25.15 180.43-1.22 175.79 0.98 175.55 0.98 175.55-25.15Q175.55-28.42 173.79-30.44L173.79-30.44Q171.62-32.96 168.1-32.96 164.58-32.96 162.41-30.44L162.41-30.44Q160.65-28.42 160.65-25.15L160.65-25.15 160.65-1.22 156.02 0.98ZM210.21 0.98L209.97 0.98 209.97-35.64 214.61-37.84 214.85-37.84 214.85-1.22 210.21 0.98ZM224.86 0.98L224.61 0.98 224.61-25.15Q224.61-30.42 227.91-33.81L227.91-33.81Q231.38-37.35 236.94-37.35L236.94-37.35Q242.44-37.35 245.98-33.81L245.98-33.81Q249.27-30.54 249.27-25.15L249.27-25.15 249.27-1.22 244.63 0.98 244.39 0.98 244.39-25.15Q244.39-28.42 242.63-30.44L242.63-30.44Q240.46-32.96 236.94-32.96 233.43-32.96 231.25-30.44L231.25-30.44Q229.5-28.42 229.5-25.15L229.5-25.15 229.5-1.22 224.86 0.98ZM270.88 0L259.04 0 259.04-35.64 261.62-36.87 270.88-36.87Q276.44-36.87 279.91-33.33L279.91-33.33Q283.21-29.98 283.21-24.66L283.21-24.66 283.21-12.21Q283.21-6.91 279.91-3.54L279.91-3.54Q276.44 0 270.88 0L270.88 0ZM263.92-32.47L263.92-4.39 270.88-4.39Q274.39-4.39 276.56-6.91L276.56-6.91Q278.32-8.94 278.32-12.21L278.32-12.21 278.32-24.66Q278.32-27.93 276.56-29.96L276.56-29.96Q274.39-32.47 270.88-32.47L270.88-32.47 263.92-32.47ZM294.77 0.98L294.53 0.98 294.53-31.05 288.57-27.78 288.57-32.79 299.17-37.84 299.41-37.84 299.41-1.22 294.77 0.98ZM312.2 0.98L311.96 0.98 311.96-31.05 306-27.78 306-32.79 316.6-37.84 316.84-37.84 316.84-1.22 312.2 0.98ZM351.85-27.29L351.85-27.29 347.36-25.15 347.11-25.15Q347.11-28.39 345.36-30.44L345.36-30.44Q343.16-32.96 340.18-32.96L340.18-32.96Q336.64-32.96 334.47-30.44L334.47-30.44Q332.71-28.42 332.71-25.15L332.71-25.15 332.71-20.61Q335.88-23.49 340.16-23.49L340.16-23.49Q345.84-23.49 349.19-19.95L349.19-19.95Q352.48-16.46 352.48-11.52L352.48-11.52Q352.48-6.54 349.19-3.05L349.19-3.05Q345.84 0.49 340.16 0.49 334.47 0.49 331.12-3.05L331.12-3.05Q327.83-6.54 327.83-11.47L327.83-11.47 327.83-25.15Q327.83-30.32 331.12-33.81L331.12-33.81Q334.47-37.35 340.16-37.35L340.16-37.35Q345.55-37.35 348.7-34.07 351.85-30.79 351.85-27.29ZM340.16-19.09L340.16-19.09Q336.66-19.09 334.47-16.58L334.47-16.58Q332.71-14.55 332.71-11.47L332.71-11.47Q332.71-8.47 334.47-6.42L334.47-6.42Q336.62-3.91 340.16-3.91L340.16-3.91Q343.6-3.91 345.84-6.42L345.84-6.42Q347.6-8.4 347.6-11.47L347.6-11.47Q347.6-14.53 345.84-16.58L345.84-16.58Q343.7-19.09 340.16-19.09Z" fill="#7829b9" data-fill-palette-color="primary"></path></g></svg></g></svg></g></svg></g></svg></g><g transform="matrix(1,0,0,1,83.1199351140688,0)"><svg viewBox="0 0 57.76012977186244 76.70947647149791" height="76.70947647149791" width="57.76012977186244"><g><svg xmlns="http://www.w3.org/2000/svg" xmlns:xlink="http://www.w3.org/1999/xlink" version="1.1" x="0" y="0" viewBox="24.753085112132588 27.874502343521037 50.52840123383826 67.10523714019942" enable-background="new 0 0 100 100" xml:space="preserve" height="76.70947647149791" width="57.76012977186244" class="icon-icon-0" data-fill-palette-color="accent" id="icon-0"><path d="M66.703 69.459c3.479-1.399 6.55-3.88 7.799-7.515 1.37-3.987 0.475-8.438-1.77-11.92-2.074-3.216-2.354-7.311-4.19-10.668-2.072-3.789-5.485-6.724-9.426-8.442-4.775-2.082-10.273-2.274-15.292-1.002-2.939-2.499-7.029-2.761-10.172-0.443-3.071 2.265-3.689 6.213-2.74 9.726-2.891 4.376-4.731 9.927-4.903 15.194-0.183 5.631 3.134 10.644 7.774 13.599-1.875 3.12-3.05 6.531-3.329 9.728-4.657 1.807-6.973 7.287-4.988 11.878 2.003 4.632 7.644 6.731 12.182 4.475 1.607 0.479 3.385 0.678 5.062 0.613l0.513-0.02c0.116 0.013 0.232 0.022 0.351 0.021h28.397c3.702 0 3.546-4.732 3.051-7.277-0.593-3.05-2.296-5.852-4.776-7.733C69.783 76.42 68.534 72.817 66.703 69.459zM60.079 80.713c-2.708 0.378-5.4 0.995-7.998 1.851-1.351 0.445-2.685 0.96-3.956 1.602-0.352 0.178-1.124 0.799-1.517 0.765-1.023-0.09-0.068-0.985 0.299-1.191 2.444-1.371 5.177-2.249 7.881-2.942 2.773-0.711 5.744-1.365 8.624-1.291-0.138-2.599 0.464-5.24 1.789-7.488 1.464 3.057 2.595 6.452 2.704 9.865C65.375 80.25 62.815 80.331 60.079 80.713zM29.686 53.886c0.168-2.092 0.895-6.437 3.026-10.567 1.326 2.142 3.283 4.022 5.756 4.719 2.486 0.701 5.233 0.011 7.211-1.62 4.065-3.353 3.172-9.267 0.766-13.337 6.166-1.011 12.791 0.51 17.026 5.34 2.176 2.482 3.028 5.455 4.036 8.528 0.517 1.577 1.026 3.232 1.902 4.654 0.942 1.528 1.713 3.024 1.98 4.825-0.12-0.003-0.24-0.026-0.353-0.071l-0.893-0.286c-1.153-0.465-1.889 1.307-1.13 2.066l1.49 1.49c0.212 0.212 0.479 0.332 0.755 0.371-1.679 6.833-10.6 7.74-16.381 7.74h-8.923C38.237 67.738 28.978 62.725 29.686 53.886 29.854 51.793 29.657 54.245 29.686 53.886zM58.685 60.153c3.016 0.64 5.583-2.211 6.757-4.643 1.322-2.738 1.397-6.079-0.401-8.633-1.567-2.225-4.183-3.053-6.563-1.612-2.379 1.441-4.242 4.169-4.928 6.844C52.599 55.816 54.976 59.365 58.685 60.153zM62.2 49.146c1.428-0.044 2.636 1.55 2.699 3.561 0.062 2.01-1.046 3.676-2.474 3.72-1.428 0.044-2.636-1.55-2.699-3.561C59.664 50.856 60.772 49.19 62.2 49.146z" fill="#7829b9" data-fill-palette-color="accent"></path></svg></g></svg></g><g></g></svg></g></svg></g></svg></g><defs></defs></svg><rect width="448" height="360" fill="none" stroke="none" visibility="hidden"></rect></g></svg></g></svg>